# xmcd
#
# Track frame offsets: 
#        150
#        17248
#        33962
#        49507
#        72365
#        86583
#        100592
#        114857
#        127586
#        142459
#        160404
#        180782
#        195800
#
# Disc length: 2809 seconds
#
# Revision: 0
# Processed by: cddbd v1.5.1PL0 Copyright (c) Steve Scherf et al.
# Submitted via: ExactAudioCopy v0.95a4
#
DISCID=990af70d
DTITLE=Alison Krauss and Union Station - Live Disk 1
DYEAR=2002
DGENRE=Bluegrass
TTITLE0=Let Me Touch You for a While
TTITLE1=Choctaw Hayride
TTITLE2=The Lucky One
TTITLE3=Baby, Now That I've Found You
TTITLE4=Bright Sunny South
TTITLE5=Every Time You Say Goodbye
TTITLE6=Tiny Broken Heart
TTITLE7=Cluck Old Hen
TTITLE8=Stay
TTITLE9=Broadway
TTITLE10=Ghost in This House
TTITLE11=Forget About It
TTITLE12=Faraway Land
EXTD=
EXTT0=
EXTT1=
EXTT2=
EXTT3=
EXTT4=
EXTT5=
EXTT6=
EXTT7=
EXTT8=
EXTT9=
EXTT10=
EXTT11=
EXTT12=
PLAYORDER=
